<?xml version="1.0" standalone="no"?>
<!DOCTYPE svg PUBLIC "-//W3C//DTD SVG 20010904//EN"
 "http://www.w3.org/TR/2001/REC-SVG-20010904/DTD/svg10.dtd">
<svg version="1.0" xmlns="http://www.w3.org/2000/svg"
 width="1280.000000pt" height="640.000000pt" viewBox="0 0 1280.000000 640.000000"
 preserveAspectRatio="xMidYMid meet">
<metadata>
Created by potrace 1.15, written by Peter Selinger 2001-2017
</metadata>
<g transform="translate(0.000000,640.000000) scale(0.100000,-0.100000)"
fill="#3e4962" stroke="none">
<path d="M6370 5133 c0 -10 -18 -439 -40 -953 -22 -514 -40 -953 -40 -975 l0
-42 -55 -12 c-137 -31 -317 -159 -395 -281 -32 -50 -33 -51 -74 -46 -22 3 -84
8 -136 11 -146 9 -1371 104 -1407 109 -38 5 -74 -16 -57 -34 7 -6 349 -61 760
-120 914 -133 817 -116 810 -143 -17 -65 -27 -197 -19 -259 l9 -67 -35 -35
-36 -34 -2745 183 c-1510 101 -2773 185 -2808 188 -50 4 -67 1 -84 -13 -20
-15 -21 -20 -8 -35 7 -9 26 -23 42 -31 20 -10 497 -55 1717 -159 930 -80 1699
-145 1711 -145 16 0 20 -6 20 -34 0 -52 16 -85 44 -92 25 -6 24 -7 -28 -54
-123 -113 -175 -303 -128 -471 90 -323 459 -434 696 -209 232 220 171 621
-115 755 -30 14 -71 28 -91 31 -29 5 -38 11 -38 26 0 16 5 18 33 14 17 -3 228
-22 467 -41 l435 -36 405 -90 c223 -50 421 -95 441 -100 30 -8 38 -16 58 -64
28 -67 90 -133 156 -165 l50 -25 498 -3 c314 -2 512 1 536 8 87 23 186 118
213 203 13 44 -41 28 488 146 l405 90 435 36 c239 19 445 37 458 39 16 2 22
-2 22 -14 0 -12 -11 -19 -38 -24 -65 -10 -156 -62 -214 -124 -98 -103 -133
-201 -126 -353 4 -86 9 -106 41 -173 172 -362 659 -329 787 54 18 54 21 82 18
171 -3 98 -6 111 -40 180 -38 76 -76 123 -138 171 l-35 28 32 0 c40 0 63 30
63 82 0 34 3 38 25 38 14 0 786 65 1716 145 1220 104 1697 149 1717 159 16 8
35 22 42 31 13 15 12 20 -8 35 -17 14 -34 17 -84 13 -35 -3 -1298 -87 -2808
-188 l-2745 -183 -30 29 -30 29 0 133 c-1 76 -6 150 -14 176 -7 23 -10 45 -8
47 3 3 354 56 781 118 574 83 781 117 793 128 32 32 -13 35 -242 17 -121 -10
-458 -36 -750 -58 -291 -22 -558 -43 -592 -46 -60 -5 -63 -5 -77 22 -67 126
-262 270 -410 304 l-55 12 -5 51 c-3 28 -15 438 -26 911 -11 473 -23 888 -26
922 -5 58 -8 63 -40 82 -43 25 -44 25 -44 4z m67 -89 c2 -27 12 -404 23 -839
11 -434 22 -845 26 -912 l6 -123 -91 0 -91 0 0 58 c0 80 69 1731 76 1820 6 72
6 73 27 59 17 -11 23 -26 24 -63z m108 -1925 c28 -6 88 -29 134 -51 67 -32
100 -57 166 -121 91 -91 130 -153 171 -272 25 -72 28 -93 28 -215 0 -120 -3
-144 -27 -215 -36 -109 -90 -196 -168 -274 -77 -77 -148 -122 -251 -159 -64
-23 -88 -26 -198 -25 -108 0 -135 3 -198 26 -96 33 -169 79 -240 148 -220 214
-273 529 -136 809 39 78 61 109 128 175 166 164 362 222 591 174z m-1690 -244
c314 -24 652 -50 753 -57 179 -12 183 -12 178 -33 -9 -37 -36 -95 -44 -95 -38
0 -1539 224 -1547 232 -6 6 8 7 40 3 28 -3 307 -25 620 -50z m3760 46 c-8 -7
-1511 -231 -1551 -231 -10 0 -54 90 -54 111 0 5 22 9 49 9 47 0 1049 76 1361
104 203 18 206 18 195 7z m-5687 -505 l2733 -182 55 -59 c52 -58 54 -62 51
-108 -6 -66 -51 -115 -105 -112 -20 1 -221 44 -447 95 l-410 93 -478 41 -478
41 -12 25 c-18 36 -63 40 -78 6 -10 -21 -17 -24 -38 -19 -14 3 -28 11 -30 16
-23 61 -124 78 -169 29 l-25 -27 -556 47 c-2799 241 -2858 246 -2889 262 -62
32 -37 47 68 39 41 -3 1305 -87 2808 -187z m9836 188 c24 -9 19 -22 -16 -40
-31 -16 -165 -28 -2893 -262 l-560 -48 -18 29 c-17 27 -20 28 -84 25 -68 -3
-76 -8 -95 -60 -2 -4 -17 -10 -34 -14 -26 -5 -32 -2 -42 20 -19 42 -82 30 -82
-16 0 -12 -8 -18 -22 -18 -13 0 -228 -18 -478 -39 l-455 -40 -400 -91 c-220
-50 -419 -93 -442 -94 -36 -3 -46 1 -74 30 -25 25 -33 44 -36 81 -4 47 -3 49
55 108 l58 60 2780 186 c3248 218 2819 190 2838 183z m-9014 -409 c0 -15 -6
-25 -14 -25 -8 0 -21 -3 -30 -6 -13 -5 -16 1 -16 25 0 28 3 31 30 31 25 0 30
-4 30 -25z m5352 -6 c4 -27 2 -30 -16 -25 -12 3 -29 6 -38 6 -21 0 -25 36 -5
43 35 15 55 7 59 -24z m-5146 -88 c220 -103 301 -392 171 -614 -35 -59 -107
-124 -175 -155 -50 -24 -69 -27 -157 -27 -93 0 -104 3 -160 32 -63 33 -138
104 -172 163 -42 72 -55 136 -51 238 3 83 8 107 35 163 95 204 315 291 509
200z m5187 0 c162 -77 262 -275 229 -452 -26 -140 -111 -257 -227 -315 -54
-26 -70 -29 -160 -29 -90 0 -106 3 -158 28 -162 80 -259 272 -228 451 7 37 23
92 36 121 27 63 101 146 160 180 102 61 242 67 348 16z m-3298 -67 c82 -118
235 -227 377 -268 269 -77 573 35 735 271 l38 56 5 -47 c5 -38 14 -55 53 -94
l46 -47 -29 -53 c-37 -64 -111 -115 -190 -132 -38 -8 -193 -10 -510 -8 l-455
3 -55 26 c-62 30 -113 76 -140 128 l-18 36 49 52 c42 45 49 58 49 92 0 23 2
41 3 41 2 0 21 -25 42 -56z"/>
<path d="M5951 2807 c-18 -22 -141 -277 -133 -277 12 0 154 38 156 42 14 21
86 230 81 238 -9 15 -91 12 -104 -3z"/>
<path d="M6743 2812 c-9 -6 -2 -35 28 -117 23 -61 47 -115 53 -121 10 -11 148
-46 154 -39 2 1 -29 66 -67 144 l-71 141 -43 0 c-23 0 -48 -4 -54 -8z"/>
<path d="M6073 2793 c-3 -10 -23 -62 -44 -116 -20 -54 -32 -96 -26 -93 7 3 49
17 94 31 52 17 84 33 87 44 3 9 10 42 16 75 14 70 9 76 -68 76 -41 0 -54 -4
-59 -17z"/>
<path d="M6593 2804 c-7 -3 -11 -15 -8 -27 2 -12 9 -48 15 -79 11 -56 12 -58
53 -68 23 -6 64 -20 91 -31 27 -10 50 -18 51 -17 2 2 -16 53 -39 113 l-42 110
-54 2 c-30 1 -61 -1 -67 -3z"/>
<path d="M6208 2723 c-8 -43 -14 -78 -14 -79 1 0 45 1 99 4 l98 4 -3 72 -3 71
-81 3 -82 3 -14 -78z"/>
<path d="M6407 2793 c-13 -12 -8 -133 6 -138 6 -2 52 -6 100 -8 87 -5 89 -4
84 17 -3 11 -11 47 -17 79 l-11 57 -78 0 c-43 0 -81 -3 -84 -7z"/>
<path d="M3695 2085 c-200 -81 -249 -358 -93 -515 184 -184 488 -44 488 225 0
134 -77 251 -193 294 -75 27 -128 26 -202 -4z m121 -53 c-3 -20 -6 -56 -6 -79
0 -67 -16 -50 -28 30 l-11 72 5 -75 c5 -85 -3 -83 -36 8 -26 72 -23 78 42 80
l41 2 -7 -38z m48 32 c8 -3 12 -13 9 -22 -4 -14 -3 -14 5 -3 8 12 15 12 41 2
55 -23 58 -37 20 -79 -19 -20 -41 -46 -48 -57 -8 -11 9 4 36 34 30 33 54 51
61 47 23 -14 12 -33 -44 -73 -44 -33 -59 -39 -69 -30 -11 10 -7 24 21 76 18
36 32 66 31 68 -2 1 -20 -27 -41 -63 -21 -36 -39 -64 -41 -62 -3 2 2 26 11 53
21 71 12 78 -11 9 -17 -53 -20 -56 -23 -29 -5 40 7 135 18 135 5 0 15 -3 24
-6z m-131 -88 c22 -66 23 -75 9 -81 -10 -4 -34 12 -71 47 l-55 53 53 -62 c29
-35 50 -63 46 -63 -3 0 -25 13 -48 28 -54 37 -67 44 -67 39 0 -3 23 -22 51
-42 28 -20 49 -38 47 -41 -7 -7 -122 43 -126 55 -5 14 56 101 76 109 10 3 23
12 30 19 23 22 29 15 55 -61z m287 -30 c0 -2 3 -11 6 -19 4 -11 -12 -23 -57
-43 -34 -15 -57 -30 -51 -32 6 -2 34 9 63 23 41 21 53 24 60 13 15 -23 11 -26
-58 -41 -51 -11 -70 -12 -75 -4 -11 17 -8 21 47 66 46 37 65 48 65 37z m-385
-86 l60 -30 -60 4 -60 5 52 -12 c78 -18 75 -27 -9 -27 -71 0 -76 1 -71 20 3
11 10 20 17 20 6 0 5 4 -3 9 -14 9 -9 41 6 41 4 -1 35 -14 68 -30z m418 -30
c5 -19 0 -20 -71 -19 -79 1 -79 3 -2 25 62 17 67 17 73 -6z m7 -44 c0 -8 -4
-18 -10 -21 -13 -8 -130 15 -130 26 0 5 32 9 70 9 54 0 70 -3 70 -14z m-375
-5 c-6 -4 -38 -15 -72 -23 l-63 -16 0 24 c0 23 3 24 72 24 41 0 68 -4 63 -9z
m302 -22 c51 -9 63 -15 63 -30 0 -24 -10 -24 -73 3 -92 38 -89 44 10 27z
m-297 -4 c0 -3 -26 -18 -57 -34 -72 -37 -65 -40 11 -5 32 14 59 24 61 22 2 -2
-23 -25 -55 -51 l-59 -47 -15 28 c-29 56 -25 65 29 78 56 13 85 16 85 9z m298
-37 c55 -22 57 -24 42 -48 -7 -12 -18 -7 -65 24 -59 41 -82 65 -49 52 10 -4
43 -17 72 -28z m22 -74 c0 -6 -6 -16 -13 -22 -9 -8 -24 3 -60 43 -26 29 -47
56 -47 59 0 11 119 -69 120 -80z m-290 70 c0 -3 -21 -31 -46 -62 l-46 -57 50
53 c28 28 53 52 56 52 4 0 -10 -32 -30 -71 l-35 -71 -35 33 c-19 18 -33 37
-31 42 3 10 99 86 110 86 4 1 7 -2 7 -5z m245 -129 c-26 -20 -96 -55 -110 -55
-12 0 -25 75 -24 135 0 24 5 17 26 -38 31 -82 41 -84 13 -2 -11 33 -19 63 -17
68 1 5 20 -18 40 -52 21 -33 40 -61 43 -61 6 0 -11 31 -43 82 -36 59 -28 57
34 -4 56 -56 57 -58 38 -73z m-221 36 c-9 -34 -15 -64 -12 -66 3 -3 13 24 23
60 9 36 21 65 25 65 7 0 2 -149 -5 -157 -3 -5 -95 29 -95 34 0 13 72 134 77
130 2 -3 -3 -33 -13 -66z m81 -33 c7 -65 6 -68 -14 -68 -23 0 -27 26 -14 115
8 60 19 42 28 -47z"/>
<path d="M3695 1963 c30 -53 45 -72 45 -58 0 10 -60 105 -67 105 -3 0 7 -21
22 -47z"/>
<path d="M8911 2098 c-142 -40 -237 -203 -209 -358 19 -105 76 -184 165 -225
152 -73 330 5 393 171 87 230 -122 478 -349 412z m44 -75 c3 -27 8 -62 11 -79
3 -23 0 -33 -12 -38 -9 -4 -18 -5 -19 -4 -1 2 -21 31 -44 66 l-42 62 43 20
c24 11 46 20 50 20 4 0 9 -21 13 -47z m101 33 c3 -8 13 -12 24 -9 10 3 21 0
25 -6 7 -12 -63 -146 -72 -138 -2 3 3 29 11 58 24 78 18 84 -9 9 l-23 -65 -3
75 -2 75 -7 -67 c-3 -38 -9 -70 -12 -73 -3 -3 -9 16 -12 42 -4 26 -10 63 -13
81 l-5 32 46 0 c31 0 48 -5 52 -14z m94 -57 c0 -5 -19 -30 -41 -54 -23 -25
-40 -48 -37 -51 3 -3 23 17 44 45 22 28 42 50 46 51 7 0 60 -72 55 -76 -16
-14 -127 -62 -127 -55 0 5 22 26 50 47 27 21 48 40 45 42 -2 2 -27 -14 -56
-36 -40 -30 -55 -37 -64 -28 -10 8 -5 26 22 79 28 57 36 67 49 57 7 -7 14 -16
14 -21z m-266 -38 c20 -32 36 -62 36 -67 0 -5 -26 16 -57 46 -59 57 -55 43 6
-22 19 -21 33 -40 30 -42 -6 -6 -119 66 -119 76 0 10 51 68 60 68 5 0 25 -26
44 -59z m-41 -69 c26 -19 46 -36 44 -39 -3 -2 -34 8 -71 23 -59 23 -65 28 -55
45 11 22 13 21 82 -29z m387 -11 c0 -11 -6 -22 -12 -24 -8 -3 -6 -6 5 -6 10
-1 17 -9 17 -21 0 -18 -6 -20 -72 -19 l-73 1 55 18 c60 20 49 27 -13 9 -59
-16 -55 -4 9 30 70 35 84 38 84 12z m-405 -22 l60 -29 -60 4 -60 5 45 -10 c74
-17 71 -29 -8 -29 -65 0 -72 2 -72 20 0 12 7 20 18 20 14 0 14 2 3 9 -14 9 -9
42 6 40 4 0 35 -14 68 -30z m415 -80 c0 -19 -4 -21 -32 -15 -18 4 -50 9 -70
13 -58 9 -35 23 38 23 59 0 64 -2 64 -21z m-370 3 c0 -5 -28 -16 -62 -25 -60
-16 -52 -16 37 -2 l40 6 -57 -31 c-32 -17 -58 -32 -58 -35 0 -6 40 9 80 30 26
14 33 14 45 2 12 -12 8 -21 -27 -63 -58 -71 -56 -70 -73 -48 -23 27 -53 97
-61 139 l-6 35 71 0 c39 0 71 -4 71 -8z m307 -23 c65 -11 69 -14 54 -39 -8
-12 -18 -10 -63 10 -92 41 -90 46 9 29z m31 -56 c6 -3 12 -11 12 -18 0 -29
-22 -25 -71 10 -27 21 -52 35 -55 33 -2 -3 21 -21 51 -42 30 -20 55 -40 55
-45 0 -14 -88 -91 -104 -91 -8 0 -22 25 -35 62 -31 92 -26 100 19 31 50 -79
61 -83 15 -5 -19 31 -35 61 -35 67 0 5 26 -15 57 -45 l57 -55 -51 60 c-37 44
-47 63 -39 71 10 11 20 8 124 -33z m-298 -44 c-46 -90 -54 -98 -74 -84 -17 13
-16 17 29 69 56 66 74 72 45 15z m36 14 c-3 -10 -12 -44 -21 -75 -10 -37 -22
-58 -31 -58 -34 0 -26 31 33 128 16 26 26 29 19 5z m107 -65 c26 -69 25 -78
-4 -78 -13 0 -19 12 -24 53 -3 28 -9 66 -12 82 -8 47 11 19 40 -57z m-74 -18
c1 30 6 64 10 75 8 21 12 10 27 -99 l7 -48 -48 5 c-26 4 -50 8 -52 11 -2 2 6
37 19 77 l23 74 6 -75 c5 -72 6 -73 8 -20z"/>
<path d="M8901 2046 c-2 -17 43 -140 46 -129 2 6 -7 39 -21 74 -14 35 -25 60
-25 55z"/>
<path d="M8830 1680 l-45 -41 53 37 c28 20 52 38 52 40 0 12 -20 0 -60 -36z"/>
</g>
</svg>
